<svg id="Layer_3" enable-background="new 0 0 64 64" height="512" viewBox="0 0 64 64" width="512" xmlns="http://www.w3.org/2000/svg"><path d="m42 32v-2c2.818 0 5.509-1.346 7.2-3.6l1.049-1.398 1.6 1.2-1.049 1.398c-2.067 2.755-5.356 4.4-8.8 4.4z" fill="#fadfb2"/><path d="m22 32c-3.444 0-6.733-1.645-8.8-4.4l-.75-1 1.6-1.2.75 1c1.691 2.254 4.382 3.6 7.2 3.6z" fill="#fadfb2"/><path d="m30 62v-10.372c0-4.302-1.395-8.488-3.977-11.93l-1.046-1.395c-2.582-3.442-3.977-7.629-3.977-11.931 0-4.144-1.295-8.185-3.704-11.557l-1.296-1.815-2.757-2.757c-.796-.796-1.875-1.243-3-1.243-2.344 0-4.243 1.899-4.243 4.243v.315c0 2.453 1.989 4.442 4.442 4.442 1.009 0 1.987.343 2.775.973l2.516 2.013c.801.641 1.267 1.611 1.267 2.637 0 1.865-1.512 3.377-3.377 3.377-2.32 0-4.545-.922-6.185-2.562l-1.867-1.867c-2.286-2.286-3.571-5.388-3.571-8.621 0-3.17 1.259-6.209 3.5-8.45 2.241-2.241 5.28-3.5 8.45-3.5h.623c2.24 0 4.434.629 6.333 1.816l.006.004c3.325 2.078 7.167 3.18 11.088 3.18 3.921 0 7.763-1.102 11.088-3.18l.006-.004c1.899-1.187 4.094-1.816 6.333-1.816h.623c3.169 0 6.209 1.259 8.45 3.5 2.241 2.241 3.5 5.28 3.5 8.45 0 3.234-1.285 6.335-3.571 8.621l-1.867 1.867c-1.64 1.64-3.865 2.562-6.185 2.562-1.865 0-3.377-1.512-3.377-3.377 0-1.026.466-1.996 1.267-2.637l2.516-2.013c.788-.63 1.767-.973 2.775-.973 2.453 0 4.442-1.989 4.442-4.442v-.315c0-2.344-1.899-4.243-4.243-4.243-1.125 0-2.204.447-3 1.243l-2.757 2.757-1.296 1.815c-2.409 3.372-3.704 7.413-3.704 11.557 0 4.302-1.395 8.488-3.977 11.93l-1.046 1.395c-2.582 3.442-3.977 7.629-3.977 11.931v10.372" fill="#c66b60"/><path d="m43 16c0-3.889-.78-7.591-2.187-10.957-2.753 1.279-5.757 1.957-8.813 1.957-3.921 0-7.763-1.102-11.088-3.18l-.006-.004c-1.899-1.187-4.094-1.816-6.333-1.816h-.623c-3.17 0-6.209 1.259-8.45 3.5s-3.5 5.28-3.5 8.45c0 3.234 1.285 6.335 3.571 8.621l1.867 1.867c1.64 1.64 3.865 2.562 6.185 2.562 1.865 0 3.377-1.512 3.377-3.377 0-1.026-.466-1.996-1.267-2.637l-2.516-2.013c-.788-.63-1.766-.973-2.775-.973-2.453 0-4.442-1.989-4.442-4.442v-.315c0-2.344 1.899-4.243 4.243-4.243 1.125 0 2.204.447 3 1.243l2.757 2.757 1.296 1.815c2.409 3.372 3.704 7.413 3.704 11.557 0 4.302 1.395 8.488 3.977 11.93l1.047 1.395c.404.538.768 1.101 1.113 1.673 9.369-4.462 15.863-14.142 15.863-25.37z" fill="#e47c6e"/><path d="m42 11-2.099 5.598c-.596 1.588-.901 3.271-.901 4.967v.12c0 3.426-1.244 6.736-3.5 9.315-2.256 2.579-3.5 5.889-3.5 9.315v.685-.685c0-3.426-1.244-6.736-3.5-9.315-2.256-2.579-3.5-5.889-3.5-9.315v-.12c0-1.696-.305-3.379-.901-4.967l-2.099-5.598" fill="#fadfb2"/></svg>